<svg xmlns="http://www.w3.org/2000/svg" viewBox="0 0 556 378" width="556" height="378"><style>.gate-label { font-family: ui-monospace, monospace; font-size: 13px; font-weight: 600; }.wire-label { font-family: ui-monospace, monospace; font-size: 13px; font-weight: 500; }</style><line x1="80" y1="42" x2="556" y2="42" stroke="#4b5563" stroke-width="2" /><text x="72" y="47" text-anchor="end" fill="#4b5563" class="wire-label">q[0]</text><line x1="80" y1="98" x2="556" y2="98" stroke="#4b5563" stroke-width="2" /><text x="72" y="103" text-anchor="end" fill="#4b5563" class="wire-label">q[1]</text><line x1="80" y1="154" x2="556" y2="154" stroke="#4b5563" stroke-width="2" /><text x="72" y="159" text-anchor="end" fill="#4b5563" class="wire-label">q[2]</text><line x1="80" y1="210" x2="556" y2="210" stroke="#4b5563" stroke-width="2" /><text x="72" y="215" text-anchor="end" fill="#4b5563" class="wire-label">a[0]</text><line x1="80" y1="266" x2="556" y2="266" stroke="#4b5563" stroke-width="2" /><text x="72" y="271" text-anchor="end" fill="#4b5563" class="wire-label">a[1]</text><line x1="80" y1="322" x2="556" y2="322" stroke="#4b5563" stroke-width="2" /><text x="72" y="327" text-anchor="end" fill="#4b5563" class="wire-label">a[2]</text><rect x="108" y="24" width="36" height="148" rx="8" fill="#1f2937" stroke="#0ea5e9" stroke-width="2" /><text x="126" y="103" text-anchor="middle" fill="#e5e7eb" class="gate-label">X</text><line x1="182" y1="24" x2="182" y2="172" stroke="#f59e0b" stroke-width="2" stroke-dasharray="4 2" /><line x1="238" y1="192" x2="238" y2="340" stroke="#f59e0b" stroke-width="2" stroke-dasharray="4 2" /><line x1="294" y1="24" x2="294" y2="340" stroke="#f59e0b" stroke-width="2" stroke-dasharray="4 2" /><line x1="350" y1="24" x2="350" y2="60" stroke="#f59e0b" stroke-width="2" stroke-dasharray="4 2" /><line x1="406" y1="24" x2="406" y2="116" stroke="#f59e0b" stroke-width="2" stroke-dasharray="4 2" /><line x1="462" y1="24" x2="462" y2="60" stroke="#f59e0b" stroke-width="2" stroke-dasharray="4 2" /><line x1="462" y1="136" x2="462" y2="172" stroke="#f59e0b" stroke-width="2" stroke-dasharray="4 2" /><line x1="518" y1="24" x2="518" y2="60" stroke="#f59e0b" stroke-width="2" stroke-dasharray="4 2" /><line x1="518" y1="192" x2="518" y2="340" stroke="#f59e0b" stroke-width="2" stroke-dasharray="4 2" /></svg>
