<svg xmlns="http://www.w3.org/2000/svg" viewBox="0 0 892 546" width="892" height="546"><style>.gate-label { font-family: ui-monospace, monospace; font-size: 13px; font-weight: 600; }.wire-label { font-family: ui-monospace, monospace; font-size: 13px; font-weight: 500; }</style><line x1="80" y1="42" x2="892" y2="42" stroke="#4b5563" stroke-width="2" /><text x="72" y="47" text-anchor="end" fill="#4b5563" class="wire-label">r[0]</text><line x1="80" y1="98" x2="892" y2="98" stroke="#4b5563" stroke-width="2" /><text x="72" y="103" text-anchor="end" fill="#4b5563" class="wire-label">r[1]</text><line x1="80" y1="154" x2="892" y2="154" stroke="#4b5563" stroke-width="2" /><text x="72" y="159" text-anchor="end" fill="#4b5563" class="wire-label">r[2]</text><line x1="80" y1="210" x2="892" y2="210" stroke="#4b5563" stroke-width="2" /><text x="72" y="215" text-anchor="end" fill="#4b5563" class="wire-label">r[3]</text><line x1="80" y1="266" x2="892" y2="266" stroke="#4b5563" stroke-width="2" /><text x="72" y="271" text-anchor="end" fill="#4b5563" class="wire-label">s[0]</text><line x1="80" y1="322" x2="892" y2="322" stroke="#4b5563" stroke-width="2" /><text x="72" y="327" text-anchor="end" fill="#4b5563" class="wire-label">s[1]</text><line x1="80" y1="378" x2="892" y2="378" stroke="#4b5563" stroke-width="2" /><text x="72" y="383" text-anchor="end" fill="#4b5563" class="wire-label">s[2]</text><line x1="80" y1="434" x2="892" y2="434" stroke="#4b5563" stroke-width="2" /><text x="72" y="439" text-anchor="end" fill="#4b5563" class="wire-label">s[3]</text><line x1="80" y1="490" x2="892" y2="490" stroke="#4b5563" stroke-width="2" /><text x="72" y="495" text-anchor="end" fill="#4b5563" class="wire-label">a</text><rect x="108" y="24" width="36" height="204" rx="8" fill="#1f2937" stroke="#0ea5e9" stroke-width="2" /><text x="126" y="131" text-anchor="middle" fill="#e5e7eb" class="gate-label">H</text><rect x="108" y="472" width="36" height="36" rx="8" fill="#1f2937" stroke="#0ea5e9" stroke-width="2" /><text x="126" y="495" text-anchor="middle" fill="#e5e7eb" class="gate-label">X</text><rect x="164" y="472" width="36" height="36" rx="8" fill="#1f2937" stroke="#0ea5e9" stroke-width="2" /><text x="182" y="495" text-anchor="middle" fill="#e5e7eb" class="gate-label">H</text><rect x="220" y="24" width="36" height="484" rx="8" fill="#1f2937" stroke="#8b5cf6" stroke-width="2" /><text x="238" y="271" text-anchor="middle" fill="#e5e7eb" class="gate-label">ORACLE</text><rect x="276" y="24" width="36" height="204" rx="8" fill="#1f2937" stroke="#0ea5e9" stroke-width="2" /><text x="294" y="131" text-anchor="middle" fill="#e5e7eb" class="gate-label">H</text><rect x="332" y="24" width="36" height="204" rx="8" fill="#1f2937" stroke="#0ea5e9" stroke-width="2" /><text x="350" y="131" text-anchor="middle" fill="#e5e7eb" class="gate-label">X</text><line x1="406" y1="42" x2="406" y2="210" stroke="#0ea5e9" stroke-width="2" /><circle cx="406" cy="42" r="6" fill="#0ea5e9" /><line x1="406" y1="98" x2="406" y2="210" stroke="#0ea5e9" stroke-width="2" /><circle cx="406" cy="98" r="6" fill="#0ea5e9" /><line x1="406" y1="154" x2="406" y2="210" stroke="#0ea5e9" stroke-width="2" /><circle cx="406" cy="154" r="6" fill="#0ea5e9" /><rect x="388" y="192" width="36" height="36" rx="8" fill="#1f2937" stroke="#0ea5e9" stroke-width="2" /><text x="406" y="215" text-anchor="middle" fill="#e5e7eb" class="gate-label">Z</text><rect x="444" y="24" width="36" height="204" rx="8" fill="#1f2937" stroke="#0ea5e9" stroke-width="2" /><text x="462" y="131" text-anchor="middle" fill="#e5e7eb" class="gate-label">X</text><rect x="500" y="24" width="36" height="204" rx="8" fill="#1f2937" stroke="#0ea5e9" stroke-width="2" /><text x="518" y="131" text-anchor="middle" fill="#e5e7eb" class="gate-label">H</text><rect x="556" y="24" width="36" height="484" rx="8" fill="#1f2937" stroke="#8b5cf6" stroke-width="2" /><text x="574" y="271" text-anchor="middle" fill="#e5e7eb" class="gate-label">ORACLE</text><rect x="612" y="24" width="36" height="204" rx="8" fill="#1f2937" stroke="#0ea5e9" stroke-width="2" /><text x="630" y="131" text-anchor="middle" fill="#e5e7eb" class="gate-label">H</text><rect x="668" y="24" width="36" height="204" rx="8" fill="#1f2937" stroke="#0ea5e9" stroke-width="2" /><text x="686" y="131" text-anchor="middle" fill="#e5e7eb" class="gate-label">X</text><line x1="742" y1="42" x2="742" y2="210" stroke="#0ea5e9" stroke-width="2" /><circle cx="742" cy="42" r="6" fill="#0ea5e9" /><line x1="742" y1="98" x2="742" y2="210" stroke="#0ea5e9" stroke-width="2" /><circle cx="742" cy="98" r="6" fill="#0ea5e9" /><line x1="742" y1="154" x2="742" y2="210" stroke="#0ea5e9" stroke-width="2" /><circle cx="742" cy="154" r="6" fill="#0ea5e9" /><rect x="724" y="192" width="36" height="36" rx="8" fill="#1f2937" stroke="#0ea5e9" stroke-width="2" /><text x="742" y="215" text-anchor="middle" fill="#e5e7eb" class="gate-label">Z</text><rect x="780" y="24" width="36" height="204" rx="8" fill="#1f2937" stroke="#0ea5e9" stroke-width="2" /><text x="798" y="131" text-anchor="middle" fill="#e5e7eb" class="gate-label">X</text><rect x="836" y="24" width="36" height="204" rx="8" fill="#1f2937" stroke="#0ea5e9" stroke-width="2" /><text x="854" y="131" text-anchor="middle" fill="#e5e7eb" class="gate-label">H</text></svg>
