<svg xmlns="http://www.w3.org/2000/svg" viewBox="0 0 668 434" width="668" height="434"><style>.gate-label { font-family: ui-monospace, monospace; font-size: 13px; font-weight: 600; }.wire-label { font-family: ui-monospace, monospace; font-size: 13px; font-weight: 500; }</style><line x1="80" y1="42" x2="668" y2="42" stroke="#4b5563" stroke-width="2" /><text x="72" y="47" text-anchor="end" fill="#4b5563" class="wire-label">psi</text><line x1="80" y1="98" x2="668" y2="98" stroke="#4b5563" stroke-width="2" /><text x="72" y="103" text-anchor="end" fill="#4b5563" class="wire-label">enc[0]</text><line x1="80" y1="154" x2="668" y2="154" stroke="#4b5563" stroke-width="2" /><text x="72" y="159" text-anchor="end" fill="#4b5563" class="wire-label">enc[1]</text><line x1="80" y1="210" x2="668" y2="210" stroke="#4b5563" stroke-width="2" /><text x="72" y="215" text-anchor="end" fill="#4b5563" class="wire-label">a[0]</text><line x1="80" y1="266" x2="668" y2="266" stroke="#4b5563" stroke-width="2" /><text x="72" y="271" text-anchor="end" fill="#4b5563" class="wire-label">a[1]</text><line x1="80" y1="322" x2="668" y2="322" stroke="#4b5563" stroke-width="2" /><text x="72" y="327" text-anchor="end" fill="#4b5563" class="wire-label">m0</text><line x1="80" y1="378" x2="668" y2="378" stroke="#4b5563" stroke-width="2" /><text x="72" y="383" text-anchor="end" fill="#4b5563" class="wire-label">m1</text><rect x="108" y="24" width="36" height="36" rx="8" fill="#1f2937" stroke="#0ea5e9" stroke-width="2" /><text x="126" y="47" text-anchor="middle" fill="#e5e7eb" class="gate-label">U</text><line x1="182" y1="42" x2="182" y2="98" stroke="#0ea5e9" stroke-width="2" /><circle cx="182" cy="42" r="6" fill="#0ea5e9" /><rect x="164" y="80" width="36" height="36" rx="8" fill="#1f2937" stroke="#0ea5e9" stroke-width="2" /><text x="182" y="103" text-anchor="middle" fill="#e5e7eb" class="gate-label">X</text><line x1="238" y1="42" x2="238" y2="154" stroke="#0ea5e9" stroke-width="2" /><circle cx="238" cy="42" r="6" fill="#0ea5e9" /><rect x="220" y="136" width="36" height="36" rx="8" fill="#1f2937" stroke="#0ea5e9" stroke-width="2" /><text x="238" y="159" text-anchor="middle" fill="#e5e7eb" class="gate-label">X</text><rect x="276" y="24" width="36" height="36" rx="8" fill="#1f2937" stroke="#0ea5e9" stroke-width="2" /><text x="294" y="47" text-anchor="middle" fill="#e5e7eb" class="gate-label">X</text><line x1="350" y1="42" x2="350" y2="210" stroke="#0ea5e9" stroke-width="2" /><circle cx="350" cy="42" r="6" fill="#0ea5e9" /><rect x="332" y="192" width="36" height="36" rx="8" fill="#1f2937" stroke="#0ea5e9" stroke-width="2" /><text x="350" y="215" text-anchor="middle" fill="#e5e7eb" class="gate-label">X</text><line x1="406" y1="98" x2="406" y2="210" stroke="#0ea5e9" stroke-width="2" /><circle cx="406" cy="98" r="6" fill="#0ea5e9" /><rect x="388" y="192" width="36" height="36" rx="8" fill="#1f2937" stroke="#0ea5e9" stroke-width="2" /><text x="406" y="215" text-anchor="middle" fill="#e5e7eb" class="gate-label">X</text><line x1="462" y1="98" x2="462" y2="266" stroke="#0ea5e9" stroke-width="2" /><circle cx="462" cy="98" r="6" fill="#0ea5e9" /><rect x="444" y="248" width="36" height="36" rx="8" fill="#1f2937" stroke="#0ea5e9" stroke-width="2" /><text x="462" y="271" text-anchor="middle" fill="#e5e7eb" class="gate-label">X</text><line x1="518" y1="154" x2="518" y2="266" stroke="#0ea5e9" stroke-width="2" /><circle cx="518" cy="154" r="6" fill="#0ea5e9" /><rect x="500" y="248" width="36" height="36" rx="8" fill="#1f2937" stroke="#0ea5e9" stroke-width="2" /><text x="518" y="271" text-anchor="middle" fill="#e5e7eb" class="gate-label">X</text><line x1="574" y1="42" x2="574" y2="154" stroke="#0ea5e9" stroke-width="2" /><circle cx="574" cy="42" r="6" fill="#0ea5e9" /><rect x="556" y="136" width="36" height="36" rx="8" fill="#1f2937" stroke="#0ea5e9" stroke-width="2" /><text x="574" y="159" text-anchor="middle" fill="#e5e7eb" class="gate-label">X</text><line x1="630" y1="42" x2="630" y2="98" stroke="#0ea5e9" stroke-width="2" /><circle cx="630" cy="42" r="6" fill="#0ea5e9" /><rect x="612" y="80" width="36" height="36" rx="8" fill="#1f2937" stroke="#0ea5e9" stroke-width="2" /><text x="630" y="103" text-anchor="middle" fill="#e5e7eb" class="gate-label">X</text></svg>
