<svg xmlns="http://www.w3.org/2000/svg" viewBox="0 0 220 546" width="220" height="546"><style>.gate-label { font-family: ui-monospace, monospace; font-size: 13px; font-weight: 600; }.wire-label { font-family: ui-monospace, monospace; font-size: 13px; font-weight: 500; }</style><line x1="80" y1="42" x2="220" y2="42" stroke="#4b5563" stroke-width="2" /><text x="72" y="47" text-anchor="end" fill="#4b5563" class="wire-label">r[0]</text><line x1="80" y1="98" x2="220" y2="98" stroke="#4b5563" stroke-width="2" /><text x="72" y="103" text-anchor="end" fill="#4b5563" class="wire-label">r[1]</text><line x1="80" y1="154" x2="220" y2="154" stroke="#4b5563" stroke-width="2" /><text x="72" y="159" text-anchor="end" fill="#4b5563" class="wire-label">r[2]</text><line x1="80" y1="210" x2="220" y2="210" stroke="#4b5563" stroke-width="2" /><text x="72" y="215" text-anchor="end" fill="#4b5563" class="wire-label">r[3]</text><line x1="80" y1="266" x2="220" y2="266" stroke="#4b5563" stroke-width="2" /><text x="72" y="271" text-anchor="end" fill="#4b5563" class="wire-label">s[0]</text><line x1="80" y1="322" x2="220" y2="322" stroke="#4b5563" stroke-width="2" /><text x="72" y="327" text-anchor="end" fill="#4b5563" class="wire-label">s[1]</text><line x1="80" y1="378" x2="220" y2="378" stroke="#4b5563" stroke-width="2" /><text x="72" y="383" text-anchor="end" fill="#4b5563" class="wire-label">s[2]</text><line x1="80" y1="434" x2="220" y2="434" stroke="#4b5563" stroke-width="2" /><text x="72" y="439" text-anchor="end" fill="#4b5563" class="wire-label">s[3]</text><line x1="80" y1="490" x2="220" y2="490" stroke="#4b5563" stroke-width="2" /><text x="72" y="495" text-anchor="end" fill="#4b5563" class="wire-label">a</text><rect x="108" y="24" width="36" height="204" rx="8" fill="#1f2937" stroke="#0ea5e9" stroke-width="2" /><text x="126" y="131" text-anchor="middle" fill="#e5e7eb" class="gate-label">H</text><rect x="108" y="472" width="36" height="36" rx="8" fill="#1f2937" stroke="#0ea5e9" stroke-width="2" /><text x="126" y="495" text-anchor="middle" fill="#e5e7eb" class="gate-label">X</text><rect x="164" y="472" width="36" height="36" rx="8" fill="#1f2937" stroke="#0ea5e9" stroke-width="2" /><text x="182" y="495" text-anchor="middle" fill="#e5e7eb" class="gate-label">H</text></svg>
