<svg xmlns="http://www.w3.org/2000/svg" viewBox="0 0 500 210" width="500" height="210"><style>.gate-label { font-family: ui-monospace, monospace; font-size: 13px; font-weight: 600; }.wire-label { font-family: ui-monospace, monospace; font-size: 13px; font-weight: 500; }</style><line x1="80" y1="42" x2="500" y2="42" stroke="#4b5563" stroke-width="2" /><text x="72" y="47" text-anchor="end" fill="#4b5563" class="wire-label">psi</text><line x1="80" y1="98" x2="500" y2="98" stroke="#4b5563" stroke-width="2" /><text x="72" y="103" text-anchor="end" fill="#4b5563" class="wire-label">a</text><line x1="80" y1="154" x2="500" y2="154" stroke="#4b5563" stroke-width="2" /><text x="72" y="159" text-anchor="end" fill="#4b5563" class="wire-label">t</text><rect x="108" y="24" width="36" height="36" rx="8" fill="#1f2937" stroke="#0ea5e9" stroke-width="2" /><text x="126" y="47" text-anchor="middle" fill="#e5e7eb" class="gate-label">U</text><rect x="108" y="80" width="36" height="36" rx="8" fill="#1f2937" stroke="#0ea5e9" stroke-width="2" /><text x="126" y="103" text-anchor="middle" fill="#e5e7eb" class="gate-label">H</text><line x1="182" y1="98" x2="182" y2="154" stroke="#0ea5e9" stroke-width="2" /><circle cx="182" cy="98" r="6" fill="#0ea5e9" /><rect x="164" y="136" width="36" height="36" rx="8" fill="#1f2937" stroke="#0ea5e9" stroke-width="2" /><text x="182" y="159" text-anchor="middle" fill="#e5e7eb" class="gate-label">X</text><line x1="238" y1="42" x2="238" y2="98" stroke="#0ea5e9" stroke-width="2" /><circle cx="238" cy="42" r="6" fill="#0ea5e9" /><rect x="220" y="80" width="36" height="36" rx="8" fill="#1f2937" stroke="#0ea5e9" stroke-width="2" /><text x="238" y="103" text-anchor="middle" fill="#e5e7eb" class="gate-label">X</text><rect x="276" y="24" width="36" height="36" rx="8" fill="#1f2937" stroke="#0ea5e9" stroke-width="2" /><text x="294" y="47" text-anchor="middle" fill="#e5e7eb" class="gate-label">H</text><line x1="350" y1="98" x2="350" y2="154" stroke="#0ea5e9" stroke-width="2" /><circle cx="350" cy="98" r="6" fill="#0ea5e9" /><rect x="332" y="136" width="36" height="36" rx="8" fill="#1f2937" stroke="#0ea5e9" stroke-width="2" /><text x="350" y="159" text-anchor="middle" fill="#e5e7eb" class="gate-label">X</text><line x1="406" y1="42" x2="406" y2="154" stroke="#0ea5e9" stroke-width="2" /><circle cx="406" cy="42" r="6" fill="#0ea5e9" /><rect x="388" y="136" width="36" height="36" rx="8" fill="#1f2937" stroke="#0ea5e9" stroke-width="2" /><text x="406" y="159" text-anchor="middle" fill="#e5e7eb" class="gate-label">Z</text><rect x="444" y="24" width="36" height="36" rx="8" fill="#1f2937" stroke="#10b981" stroke-width="2" /><path d="M 454 42 A 10 10 0 0 1 474 42" fill="none" stroke="#10b981" stroke-width="2" /><line x1="464" y1="42" x2="470" y2="32" stroke="#10b981" stroke-width="2" /><rect x="444" y="80" width="36" height="36" rx="8" fill="#1f2937" stroke="#10b981" stroke-width="2" /><path d="M 454 98 A 10 10 0 0 1 474 98" fill="none" stroke="#10b981" stroke-width="2" /><line x1="464" y1="98" x2="470" y2="88" stroke="#10b981" stroke-width="2" /></svg>
