<svg xmlns="http://www.w3.org/2000/svg" viewBox="0 0 332 434" width="332" height="434"><style>.gate-label { font-family: ui-monospace, monospace; font-size: 13px; font-weight: 600; }.wire-label { font-family: ui-monospace, monospace; font-size: 13px; font-weight: 500; }</style><line x1="80" y1="42" x2="332" y2="42" stroke="#4b5563" stroke-width="2" /><text x="72" y="47" text-anchor="end" fill="#4b5563" class="wire-label">q[0]</text><line x1="80" y1="98" x2="332" y2="98" stroke="#4b5563" stroke-width="2" /><text x="72" y="103" text-anchor="end" fill="#4b5563" class="wire-label">q[1]</text><line x1="80" y1="154" x2="332" y2="154" stroke="#4b5563" stroke-width="2" /><text x="72" y="159" text-anchor="end" fill="#4b5563" class="wire-label">q[2]</text><line x1="80" y1="210" x2="332" y2="210" stroke="#4b5563" stroke-width="2" /><text x="72" y="215" text-anchor="end" fill="#4b5563" class="wire-label">a[0]</text><line x1="80" y1="266" x2="332" y2="266" stroke="#4b5563" stroke-width="2" /><text x="72" y="271" text-anchor="end" fill="#4b5563" class="wire-label">a[1]</text><line x1="80" y1="322" x2="332" y2="322" stroke="#4b5563" stroke-width="2" /><text x="72" y="327" text-anchor="end" fill="#4b5563" class="wire-label">a[2]</text><line x1="80" y1="378" x2="332" y2="378" stroke="#4b5563" stroke-width="2" /><text x="72" y="383" text-anchor="end" fill="#4b5563" class="wire-label">a[3]</text><rect x="108" y="24" width="36" height="148" rx="8" fill="#1f2937" stroke="#0ea5e9" stroke-width="2" /><text x="126" y="103" text-anchor="middle" fill="#e5e7eb" class="gate-label">H</text><rect x="108" y="360" width="36" height="36" rx="8" fill="#1f2937" stroke="#0ea5e9" stroke-width="2" /><text x="126" y="383" text-anchor="middle" fill="#e5e7eb" class="gate-label">X</text><rect x="164" y="24" width="36" height="372" rx="8" fill="#1f2937" stroke="#8b5cf6" stroke-width="2" /><text x="182" y="215" text-anchor="middle" fill="#e5e7eb" class="gate-label">MODEXP</text><rect x="220" y="24" width="36" height="148" rx="8" fill="#1f2937" stroke="#8b5cf6" stroke-width="2" /><text x="238" y="103" text-anchor="middle" fill="#e5e7eb" class="gate-label">INV_QFT</text><rect x="276" y="192" width="36" height="36" rx="8" fill="#1f2937" stroke="#10b981" stroke-width="2" /><path d="M 286 210 A 10 10 0 0 1 306 210" fill="none" stroke="#10b981" stroke-width="2" /><line x1="296" y1="210" x2="302" y2="200" stroke="#10b981" stroke-width="2" /><rect x="276" y="248" width="36" height="36" rx="8" fill="#1f2937" stroke="#10b981" stroke-width="2" /><path d="M 286 266 A 10 10 0 0 1 306 266" fill="none" stroke="#10b981" stroke-width="2" /><line x1="296" y1="266" x2="302" y2="256" stroke="#10b981" stroke-width="2" /><rect x="276" y="304" width="36" height="36" rx="8" fill="#1f2937" stroke="#10b981" stroke-width="2" /><path d="M 286 322 A 10 10 0 0 1 306 322" fill="none" stroke="#10b981" stroke-width="2" /><line x1="296" y1="322" x2="302" y2="312" stroke="#10b981" stroke-width="2" /><rect x="276" y="360" width="36" height="36" rx="8" fill="#1f2937" stroke="#10b981" stroke-width="2" /><path d="M 286 378 A 10 10 0 0 1 306 378" fill="none" stroke="#10b981" stroke-width="2" /><line x1="296" y1="378" x2="302" y2="368" stroke="#10b981" stroke-width="2" /></svg>
